<?xml version="1.0" encoding="utf-8"?>
<!-- Generator: Adobe Illustrator 18.0.0, SVG Export Plug-In . SVG Version: 6.00 Build 0)  -->
<!DOCTYPE svg PUBLIC "-//W3C//DTD SVG 1.1//EN" "http://www.w3.org/Graphics/SVG/1.1/DTD/svg11.dtd">
<svg version="1.1" xmlns="http://www.w3.org/2000/svg" xmlns:xlink="http://www.w3.org/1999/xlink" x="0px" y="0px"
	 viewBox="0 0 402.4 92.4" enable-background="new 0 0 402.4 92.4" xml:space="preserve">
<g id="Artwork">
</g>
<g id="Guides">
	<g>
		<g>
			<path fill="#FFFFFF" d="M260,4.9h-6.7V2.8H269v2.1h-6.7v18H260V4.9z"/>
			<path fill="#FFFFFF" d="M273.5,2.8h2.3v8.9h11.6V2.8h2.3v20.1h-2.3v-9h-11.6v9h-2.3V2.8z"/>
			<path fill="#FFFFFF" d="M295.6,2.8h14.5v2.1h-12.2v6.9h11v2.1h-11v7h12.4v2.1h-14.6V2.8z"/>
			<path fill="#FFFFFF" d="M253.3,36.1h2.5l5.7,16.7l5.5-16.8h1.9l5.5,16.8l5.7-16.7h2.4l-7.2,20.2h-1.9L267.9,40l-5.5,16.3h-1.9
				L253.3,36.1z"/>
			<path fill="#FFFFFF" d="M284.9,46.2L284.9,46.2c0-5.6,4.2-10.4,10.3-10.4c6.1,0,10.2,4.8,10.2,10.3v0.1c0,5.5-4.2,10.4-10.3,10.4
				C289,56.5,284.9,51.7,284.9,46.2z M303,46.2L303,46.2c0-4.6-3.3-8.3-7.9-8.3c-4.6,0-7.9,3.7-7.9,8.2v0.1c0,4.6,3.3,8.3,7.9,8.3
				S303,50.8,303,46.2z"/>
			<path fill="#FFFFFF" d="M310.3,36.1h8.6c2.5,0,4.4,0.7,5.7,2c1,1,1.5,2.4,1.5,4v0.1c0,3.3-2.3,5.3-5.4,5.8l6.2,8.2h-2.8l-5.8-7.8
				h-5.7v7.8h-2.3V36.1z M318.7,46.3c3,0,5.2-1.5,5.2-4.1v-0.1c0-2.5-1.9-4-5.1-4h-6.2v8.1H318.7z"/>
			<path fill="#FFFFFF" d="M331.2,36.1h2.3v12l11.5-12h2.9l-8.6,8.8l9,11.3h-2.8l-7.7-9.7l-4.3,4.3v5.4h-2.3V36.1z"/>
			<path fill="#FFFFFF" d="M352.3,36.1h2.3v20.1h-2.3V36.1z"/>
			<path fill="#FFFFFF" d="M360.6,36.1h2.1l12.6,16.1V36.1h2.2v20.1h-1.8l-13-16.5v16.5h-2.2V36.1z"/>
			<path fill="#FFFFFF" d="M382.3,46.2L382.3,46.2c0-5.6,4-10.4,10.1-10.4c3.4,0,5.5,1,7.5,2.7l-1.5,1.7c-1.5-1.3-3.3-2.3-6.1-2.3
				c-4.4,0-7.6,3.8-7.6,8.2v0.1c0,4.8,3.1,8.3,7.9,8.3c2.3,0,4.4-0.9,5.8-2v-5h-6.1v-2h8.3v8c-1.9,1.7-4.7,3.1-8.1,3.1
				C386.2,56.5,382.3,51.9,382.3,46.2z"/>
			<path fill="#FFFFFF" d="M253.4,79.5L253.4,79.5c0-5.6,4-10.4,10.1-10.4c3.4,0,5.5,1,7.5,2.7l-1.5,1.7c-1.5-1.3-3.3-2.3-6.1-2.3
				c-4.4,0-7.6,3.8-7.6,8.2v0.1c0,4.8,3.1,8.3,7.9,8.3c2.3,0,4.4-0.9,5.8-2v-5h-6.1v-2h8.3v8c-1.9,1.7-4.7,3.1-8.1,3.1
				C257.3,89.9,253.4,85.3,253.4,79.5z"/>
			<path fill="#FFFFFF" d="M277,69.4h8.6c2.5,0,4.4,0.7,5.7,2c1,1,1.5,2.4,1.5,4v0.1c0,3.3-2.3,5.3-5.4,5.8l6.2,8.2h-2.8l-5.8-7.8
				h-5.7v7.8H277V69.4z M285.5,79.7c3,0,5.2-1.5,5.2-4.1v-0.1c0-2.5-1.9-4-5.1-4h-6.2v8.1H285.5z"/>
			<path fill="#FFFFFF" d="M297.2,79.5L297.2,79.5c0-5.6,4.2-10.4,10.3-10.4c6.1,0,10.2,4.8,10.2,10.3v0.1c0,5.5-4.2,10.4-10.3,10.4
				C301.3,89.9,297.2,85.1,297.2,79.5z M315.3,79.5L315.3,79.5c0-4.6-3.3-8.3-7.9-8.3c-4.6,0-7.9,3.7-7.9,8.2v0.1
				c0,4.6,3.3,8.3,7.9,8.3C312,87.8,315.3,84.1,315.3,79.5z"/>
			<path fill="#FFFFFF" d="M322.4,81.1V69.4h2.3V81c0,4.3,2.3,6.8,6.1,6.8c3.7,0,6-2.2,6-6.6V69.4h2.3v11.5c0,5.8-3.4,8.9-8.4,8.9
				C325.8,89.8,322.4,86.8,322.4,81.1z"/>
			<path fill="#FFFFFF" d="M344.7,69.4h7.5c4.5,0,7.5,2.4,7.5,6.4v0.1c0,4.3-3.6,6.6-7.9,6.6H347v7.1h-2.3V69.4z M352,80.4
				c3.3,0,5.5-1.8,5.5-4.4v-0.1c0-2.9-2.1-4.4-5.4-4.4H347v8.8H352z"/>
		</g>
		<g>
			<g>
				<g>
					<g>
						<path fill="#FFFFFF" d="M231.7,12.8l-12.3,14c-20.2-17.5-46.7,2.4-48.2,23.2c-1.9,25.8,18.3,38.7,19.6,39.7h-25.1
							c-2.6-1.8-11.6-11-13.5-25.5l-8.9,25.5l-19.1,0l-13.8-53.6l-1-3.6l-2.8,8.5L91.3,89.7l-17.7,0L53.9,20.4H42.3v69.3H25V20.4
							l-23,0V3h65.8l15.4,54.5L86,49L100,3h20l13.2,53l1,3.6L151,3h20.1l-4.3,16.4c0.5-0.5,0.9-1.1,1.4-1.6c5-5.1,10.6-9.1,17.4-12
							c6.7-2.9,14.2-3.2,21.8-2.6C217.3,3.8,228.7,10.3,231.7,12.8z"/>
						<polygon fill="#FFFFFF" points="218.4,55 201.3,55 201.3,72.4 218.4,72.4 218.4,89.5 235.8,89.5 235.8,72.4 235.8,55 						
							"/>
					</g>
				</g>
			</g>
		</g>
	</g>
</g>
<g id="Layer_5">
</g>
</svg>
